<?xml version="1.0" encoding="UTF-8" standalone="no"?>
<!DOCTYPE svg PUBLIC "-//W3C//DTD SVG 1.1//EN" "http://www.w3.org/Graphics/SVG/1.1/DTD/svg11.dtd">
<svg width="100%" height="100%" viewBox="0 0 1080 1080" version="1.1" xmlns="http://www.w3.org/2000/svg" xmlns:xlink="http://www.w3.org/1999/xlink" xml:space="preserve" xmlns:serif="http://www.serif.com/" style="fill-rule:evenodd;clip-rule:evenodd;stroke-linejoin:round;stroke-miterlimit:2;">
    <g transform="matrix(5.25203,0,0,5.25203,539.818,540.145)">
        <g transform="matrix(1,0,0,1,-82,-26.5)">
            <clipPath id="_clip1">
                <rect x="0" y="0" width="164" height="53"/>
            </clipPath>
            <g clip-path="url(#_clip1)">
                <g>
                    <path id="svg_1" d="M156.027,0.001C153.661,-0.002 151.421,1.084 149.96,2.944L126.359,32.913L102.76,2.944C101.298,1.086 99.06,0 96.697,0C94.333,0 92.095,1.086 90.634,2.944L67.037,32.911L43.439,2.944C41.977,1.087 39.74,0.001 37.377,0.001C35.013,0.001 32.776,1.087 31.315,2.944L1.655,40.611C0.583,41.971 -0,43.653 -0,45.385C-0,47.748 1.086,49.985 2.944,51.446C4.304,52.518 5.986,53.101 7.717,53.101C10.08,53.101 12.317,52.014 13.779,50.157L37.378,20.19L60.975,50.157C62.436,52.014 64.673,53.1 67.037,53.1C69.4,53.1 71.637,52.014 73.099,50.157L96.698,20.19L120.297,50.157C121.759,52.014 123.996,53.099 126.36,53.099C128.723,53.099 130.96,52.014 132.423,50.157L162.085,12.49C163.156,11.13 163.739,9.448 163.739,7.717C163.739,5.353 162.653,3.117 160.796,1.655C159.438,0.583 157.757,-0 156.027,0.001" style="fill:rgb(243,146,0);fill-rule:nonzero;"/>
                    <path id="svg_2" d="M28.206,43.946C28.206,38.924 32.338,34.791 37.361,34.791C37.361,34.791 37.362,34.791 37.363,34.791C42.384,34.791 46.516,38.923 46.516,43.944C46.516,43.945 46.516,43.945 46.516,43.946C46.442,48.917 42.332,52.967 37.361,52.967C32.389,52.967 28.279,48.917 28.206,43.946" style="fill:rgb(138,131,122);fill-rule:nonzero;"/>
                </g>
            </g>
        </g>
    </g>
</svg>
